<svg xmlns="http://www.w3.org/2000/svg" width="150" height="23" fill="none" viewBox="0 0 150 23"><g fill="#72035d" clip-path="url(#a)"><path d="M100.42 6.871c.095-.34.274-.487.67-.487h2.405c.33 0 .566.341.452.701l-4.95 14.705c-.086.244-.255.38-.51.38H96.28c-.405 0-.632-.35-.5-.71l1.632-4.04h-.755c-.273 0-.452-.145-.537-.418l-3.301-9.82c-.16-.476.094-.807.51-.807h2.338c.33 0 .547.078.66.457l2.075 7.581zM91.773 7.046l-2.019.7a.475.475 0 0 1-.575-.233c-.783-1.489-2.037-2.452-3.857-2.452-2.528 0-4.414 2.15-4.414 4.74 0 2.588 1.924 4.71 4.414 4.71 1.895 0 3.187-.993 3.914-2.385.188-.37.396-.457.782-.301l1.943.769a.47.47 0 0 1 .274.282.5.5 0 0 1-.01.389c-1.282 2.783-3.876 4.506-6.903 4.506-4.188 0-7.583-3.572-7.583-7.97 0-4.4 3.405-7.971 7.583-7.971 2.886 0 5.46 1.664 6.771 4.36.189.409.038.73-.32.856M54.747 6.131c-.925 0-2.019.643-2.688 1.275l-.302.292V6.94c0-.447-.264-.554-.613-.554h-1.99c-.32 0-.528.233-.528.554v10.063c0 .35.208.565.519.565h2.084c.311 0 .519-.263.519-.545v-4.37c0-2.005.98-3.114 2.914-3.114.386 0 .575-.214.575-.516V6.667c.01-.36-.198-.536-.49-.536M19.305 6.18c-2.886 0-5.243 2.599-5.243 5.8 0 3.192 2.348 5.8 5.243 5.8a4.4 4.4 0 0 0 2.914-1.08l.293-.253v.643a.47.47 0 0 0 .462.477h2.112a.556.556 0 0 0 .547-.565V6.978c0-.35-.17-.594-.556-.594h-1.962c-.424 0-.603.195-.603.584v.555a4.52 4.52 0 0 0-3.207-1.343m.66 8.69c-1.575 0-2.669-1.186-2.669-2.89 0-1.674 1.123-2.89 2.67-2.89 1.574 0 2.772 1.246 2.772 2.89-.01 1.616-1.226 2.89-2.773 2.89M60.886 6.18c-2.886 0-5.243 2.599-5.243 5.8 0 3.192 2.348 5.8 5.243 5.8A4.4 4.4 0 0 0 63.8 16.7l.293-.253v.614c0 .282.254.515.5.515h2.15a.48.48 0 0 0 .471-.486V6.87a.47.47 0 0 0-.462-.477h-2.169c-.292 0-.49.195-.49.516v.633a4.45 4.45 0 0 0-3.207-1.363m.66 8.69c-1.575 0-2.669-1.186-2.669-2.89 0-1.674 1.123-2.89 2.67-2.89 1.574 0 2.772 1.246 2.772 2.89-.01 1.616-1.226 2.89-2.773 2.89M43.807 16.37v.759c0 .243.197.447.433.447h2.047c.349 0 .566-.175.566-.574V6.93c0-.341-.227-.545-.576-.545H44.43c-.425 0-.623.204-.623.68v5.08c0 2.113-1.065 2.891-2.329 2.891-1.5 0-2.292-.992-2.292-2.88l-.028-5.188c0-.34-.17-.574-.575-.574h-2.056c-.415 0-.594.205-.594.604v4.982c0 3.543 1.857 5.752 5.008 5.752 1.414 0 2.404-.623 2.838-1.362.01-.03.029-.02.029 0M3.112 8.253c0-.02.02-.029.038-.01l5.97 9.07a.57.57 0 0 0 .49.264h2.782c.368 0 .557-.234.557-.565V2.706c0-.312-.198-.535-.528-.535h-2.056c-.312 0-.529.233-.529.613v10.024c0 .02-.028.029-.037.01L3.367 2.433a.54.54 0 0 0-.462-.262H.604C.17 2.17 0 2.375 0 2.784v14.19c0 .33.207.593.547.593h2.018c.35 0 .566-.234.566-.594v-8.72zM109.484 17.752c-3.008 0-5.489-2.55-5.536-5.684a5.98 5.98 0 0 1 1.632-4.194c1.028-1.08 2.376-1.674 3.8-1.674 2.302 0 4.188 1.177 5.187 3.22a.35.35 0 0 1 .01.293.36.36 0 0 1-.208.204l-2.188.76a.424.424 0 0 1-.49-.185c-.528-.808-1.245-1.217-2.141-1.217-1.443 0-2.574 1.178-2.574 2.686 0 1.499 1.15 2.705 2.574 2.705.896 0 1.641-.418 2.141-1.216.085-.136.198-.204.349-.204.094 0 .198.02.321.068l1.801.632c.17.049.292.166.358.312a.46.46 0 0 1-.019.399c-1.028 1.946-2.904 3.095-5.017 3.095M73.279 17.567c.34 0 .528-.234.528-.555v-2.15c0-.361-.17-.556-.613-.565h-.613c-.368 0-.576-.215-.576-.614V2.794c0-.32-.179-.564-.547-.564h-2.027c-.415 0-.604.185-.604.564v11.29c0 2.472.877 3.484 3.009 3.484zM131.269 14.93c.274.223.264.564-.019.895-1.075 1.274-2.263 1.946-4.64 1.946-3.074 0-5.583-2.599-5.583-5.8 0-3.192 2.5-5.84 5.583-5.8 3.396.048 5.565 2.646 5.565 5.936 0 .39-.198.584-.576.584h-7.431c.085 1.275 1.056 2.238 2.442 2.238 1.302 0 1.972-.623 2.415-1.11.245-.282.528-.282.783-.077zm-4.555-6.22c-1.273 0-2.178.76-2.367 1.83h4.631c-.208-1.022-1.047-1.83-2.264-1.83M120.31 17.567c.339 0 .528-.234.528-.555v-2.15c0-.361-.17-.556-.613-.565h-.613c-.368 0-.575-.215-.575-.614V2.794c0-.32-.18-.564-.547-.564h-2.028c-.415 0-.604.185-.604.564v11.29c0 2.472.877 3.484 3.009 3.484zM35.196 16.564c-.358.331-1.112 1.12-3.234 1.12-1.566 0-3.546-1.14-3.528-4.244V9.285a.086.086 0 0 0-.085-.088h-.848c-.35 0-.585-.204-.585-.584l.01-1.683c0-.292.16-.545.584-.545h.849a.086.086 0 0 0 .085-.088V2.754c0-.38.198-.583.566-.583h2.074c.33 0 .49.165.49.506v3.62c0 .049.039.088.086.088h2.537c.367 0 .575.214.575.603l-.01 1.596c0 .39-.207.603-.575.603H31.66a.086.086 0 0 0-.085.088v3.941c0 .906.5 1.46 1.31 1.46.312 0 .548-.068.746-.224a.516.516 0 0 1 .745.078c.283.36.952 1.275.952 1.275.151.253.095.545-.132.76M132.92 14.93c-.283.223-.236.554-.114.739.397.613 1.736 2.112 4.565 2.112 3.197 0 4.8-1.733 4.8-3.484 0-2.122-1.244-3.134-4.498-3.952-1.311-.33-1.632-.593-1.632-.905 0-.33.312-.642 1.085-.642 1.028 0 1.773.282 2.952.983.264.156.537.175.764-.136l.933-1.256c.227-.33.085-.623-.179-.817-1.198-.866-2.518-1.382-4.216-1.382-2.687 0-4.404 1.596-4.404 3.562 0 1.83 1.16 2.949 3.763 3.571 1.528.37 2.245.526 2.245 1.003 0 .399-.415.778-1.537.778-1.123 0-2.075-.68-2.509-1.158-.208-.233-.509-.253-.773-.039-.01 0-1.151.944-1.245 1.022M145.95.46c-2.16 0-3.915 1.81-3.915 4.04 0 2.228 1.755 4.039 3.915 4.039s3.914-1.81 3.914-4.04c0-2.228-1.754-4.039-3.914-4.039m0 6.541c-1.34 0-2.434-1.12-2.434-2.511 0-1.382 1.085-2.511 2.434-2.511 1.339 0 2.433 1.119 2.433 2.51 0 1.393-1.094 2.512-2.433 2.512"/></g><defs><clipPath id="a"><path fill="#fff" d="M0 0h150v23H0z"/></clipPath></defs></svg>
